<mxfile host="app.diagrams.net" modified="2024-02-13T05:38:19.866Z" agent="Mozilla/5.0 (Windows NT 10.0; Win64; x64) AppleWebKit/537.36 (KHTML, like Gecko) Chrome/121.0.0.0 Safari/537.36" version="23.1.3" etag="xPl6dZfILuBotf8-Oqre" type="github">
  <diagram name="페이지-1" id="Prj1M3hlm9yYZZPe0aWE">
    <mxGraphModel>
      <root>
        <mxCell id="0" />
        <mxCell id="1" parent="0" />
      </root>
    </mxGraphModel>
  </diagram>
</mxfile>
